<svg width="30" height="35" viewBox="0 0 30 35" fill="none" xmlns="http://www.w3.org/2000/svg">
<path d="M2.72926 30.6234L0 0H30L27.2671 30.6185L14.9818 34.0246L2.72926 30.6234Z" fill="#1572B6"/>
<path d="M15 31.4217L24.9279 28.6693L27.2634 2.50439H15V31.4217Z" fill="#33A9DC"/>
<path d="M15 13.5989H19.97L20.3127 9.7529H15V5.99683H15.0134H24.4175L24.3276 7.0042L23.4053 17.355H15V13.5989Z" fill="white"/>
<path d="M15.0231 23.353L15.0061 23.3579L10.8235 22.2278L10.5561 19.2324H8.52315H6.78546L7.31163 25.1296L15.0048 27.2659L15.0231 27.261V23.353Z" fill="#EBEBEB"/>
<path d="M19.6504 17.1958L19.1984 22.2254L15.0097 23.3555V27.2634L22.709 25.1296L22.7661 24.4953L23.4186 17.1958H19.6504Z" fill="white"/>
<path d="M15.0134 5.99683V8.32994V9.74318V9.7529H5.95312H5.94097L5.86563 8.90836L5.69429 7.0042L5.60437 5.99683H15.0134Z" fill="#EBEBEB"/>
<path d="M15 13.5989V15.932V17.3452V17.355H10.8818H10.8697L10.7943 16.5104L10.6242 14.6062L10.5343 13.5989H15Z" fill="#EBEBEB"/>
</svg>
