<svg width="30" height="35" viewBox="0 0 30 35" fill="none" xmlns="http://www.w3.org/2000/svg">
<path d="M2.73026 30.6209L0 0H30L27.2661 30.616L14.9818 34.0219L2.73026 30.6209Z" fill="#E44F26"/>
<path d="M15 31.4191L24.9271 28.667L27.2625 2.50415H15V31.4191Z" fill="#F1662A"/>
<path d="M15 13.8604H10.0304L9.68775 10.0147H15V6.25891H14.9867H5.58325L5.67317 7.26742L6.5954 17.6161H15V13.8604Z" fill="#EBEBEB"/>
<path d="M14.9999 23.6138L14.9829 23.6186L10.8007 22.4898L10.5334 19.4947H8.50055H6.763L7.28913 25.3902L14.9829 27.5263L14.9999 27.5214V23.6138Z" fill="#EBEBEB"/>
<path d="M14.9866 13.8605V17.6163H19.6112L19.1762 22.4875L14.9866 23.6175V27.5252L22.6865 25.3903L22.7424 24.756L23.6245 14.869L23.7169 13.8605H22.7047H14.9866Z" fill="white"/>
<path d="M14.9866 6.25891V8.59184V10.0062V10.0147H24.0462H24.0583L24.1337 9.17143L24.305 7.26742L24.3949 6.25891H14.9866Z" fill="white"/>
</svg>
