<svg width="30" height="34" viewBox="0 0 30 34" fill="none" xmlns="http://www.w3.org/2000/svg">
<path d="M28.1207 16.3151C28.1207 15.4972 27.7958 14.7127 27.2174 14.1344C26.639 13.556 25.8546 13.2311 25.0366 13.2311C24.9283 13.2309 24.8201 13.2365 24.7124 13.2476L28.9491 0.752686H10.9452L15.1761 13.237C15.1145 13.237 15.0518 13.2311 14.9891 13.2311C14.2526 13.2302 13.5401 13.493 12.9805 13.9718C12.4209 14.4506 12.0511 15.1138 11.938 15.8416C11.8249 16.5693 11.976 17.3135 12.3639 17.9395C12.7518 18.5656 13.3509 19.0322 14.053 19.2549C13.3969 20.3844 12.5801 21.4126 11.628 22.307C10.3888 23.4916 8.91652 24.4053 7.30488 24.9899C6.40191 24.562 5.69571 23.8063 5.32972 22.8765C4.96373 21.9467 4.96542 20.9125 5.33442 19.9839C5.42555 19.7708 5.51786 19.5555 5.60544 19.3401C6.29309 19.1781 6.90433 18.7851 7.33703 18.2266C7.76973 17.6682 7.99767 16.9782 7.98277 16.2719C7.96787 15.5656 7.71102 14.8858 7.25515 14.3461C6.79928 13.8064 6.17201 13.4395 5.47814 13.3067C4.78427 13.1739 4.06585 13.2832 3.44291 13.6165C2.81998 13.9497 2.33027 14.4866 2.05561 15.1375C1.78096 15.7884 1.73801 16.5138 1.93392 17.1926C2.12984 17.8713 2.55276 18.4623 3.13201 18.8667C2.14757 20.6517 1.39625 22.5556 0.896461 24.5319C0.477517 27.0586 0.89646 29.7391 3.07994 31.2551C8.1688 34.783 13.6944 29.0681 19.5193 27.6326C21.6306 27.1118 23.9478 27.1959 25.8071 26.1189C26.4788 25.7363 27.058 25.2106 27.5037 24.579C27.9493 23.9474 28.2505 23.2255 28.3858 22.4644C28.5095 21.7392 28.4862 20.9965 28.3173 20.2805C28.1483 19.5645 27.8372 18.8897 27.4024 18.2963C27.8663 17.7418 28.1202 17.0417 28.1195 16.3187L28.1207 16.3151ZM18.0743 16.3317V16.3211C18.0752 15.7903 17.9388 15.2684 17.6783 14.8059C17.4179 14.3435 17.0422 13.9563 16.5879 13.682L19.9537 6.86406L23.3265 13.7447C22.9034 14.0259 22.5565 14.4074 22.3167 14.8553C22.077 15.3033 21.9518 15.8036 21.9525 16.3116V16.3791L18.0743 16.3317Z" fill="#C63D14"/>
<path d="M28.8745 16.3151C28.8733 15.4209 28.5603 14.5551 27.9894 13.8668C27.4184 13.1786 26.6253 12.711 25.7467 12.5446L30 0H9.89543L14.1559 12.5695C13.4121 12.7357 12.7347 13.1198 12.2101 13.6727C11.6855 14.2256 11.3376 14.9222 11.2106 15.6737C11.0836 16.4251 11.1834 17.1974 11.4972 17.8919C11.811 18.5865 12.3246 19.1718 12.9724 19.5732C12.4372 20.3683 11.8148 21.1011 11.1168 21.7579C10.0362 22.7917 8.76647 23.6074 7.37703 24.1603C6.72498 23.7818 6.2307 23.1815 5.98434 22.4689C5.73798 21.7563 5.75596 20.979 6.03499 20.2785L6.08233 20.1685L6.16991 19.9614C6.95867 19.6879 7.63683 19.1649 8.10171 18.4715C8.56659 17.7781 8.79286 16.9521 8.74626 16.1186C8.69966 15.285 8.38272 14.4894 7.84344 13.8522C7.30416 13.2149 6.57192 12.7707 5.75759 12.5869C4.94327 12.4031 4.09122 12.4896 3.33047 12.8334C2.56973 13.1771 1.94172 13.7594 1.54156 14.4921C1.1414 15.2248 0.99087 16.0679 1.11278 16.8937C1.23468 17.7196 1.62238 18.4832 2.21716 19.069C2.08935 19.3424 1.95444 19.6194 1.81597 19.9046C1.04865 21.3154 0.490536 22.8303 0.159131 24.4017C-0.391177 27.7154 0.496416 30.3699 2.65741 31.8669C3.81748 32.6965 5.20884 33.1407 6.63501 33.1368C9.15814 33.1368 11.7109 31.8693 14.2091 30.6291C15.9547 29.6798 17.7962 28.9188 19.7027 28.3592C20.3856 28.1911 21.0886 28.0894 21.833 27.9817C23.3495 27.8605 24.8283 27.4474 26.1881 26.7651C26.9549 26.327 27.616 25.7258 28.1247 25.0038C28.6333 24.2819 28.977 23.457 29.1313 22.5875C29.3828 21.1102 29.0924 19.5918 28.3136 18.3116C28.682 17.7105 28.8766 17.019 28.8757 16.314L28.8745 16.3151ZM27.368 16.3151C27.368 16.7762 27.2313 17.227 26.9751 17.6104C26.7189 17.9938 26.3548 18.2926 25.9288 18.4691C25.5028 18.6455 25.034 18.6917 24.5817 18.6018C24.1295 18.5118 23.7141 18.2897 23.388 17.9637C23.062 17.6376 22.8399 17.2222 22.75 16.77C22.66 16.3177 22.7062 15.849 22.8826 15.4229C23.0591 14.9969 23.3579 14.6328 23.7413 14.3766C24.1247 14.1205 24.5755 13.9837 25.0366 13.9837C25.6547 13.9844 26.2474 14.2302 26.6844 14.6673C27.1215 15.1044 27.3674 15.697 27.368 16.3151ZM27.897 1.50654L24.1407 12.5837C23.9798 12.6226 23.8217 12.672 23.6673 12.7316L19.9572 5.15751L16.2352 12.6867C16.0732 12.6305 15.9075 12.5854 15.7393 12.5517L11.9961 1.50654H27.897ZM14.989 13.9837C15.4501 13.9837 15.9009 14.1205 16.2843 14.3766C16.6677 14.6328 16.9665 14.9969 17.143 15.4229C17.3194 15.849 17.3656 16.3177 17.2756 16.77C17.1857 17.2222 16.9636 17.6376 16.6376 17.9637C16.3115 18.2897 15.8961 18.5118 15.4439 18.6018C14.9916 18.6917 14.5228 18.6455 14.0968 18.4691C13.6708 18.2926 13.3067 17.9938 13.0505 17.6104C12.7944 17.227 12.6576 16.7762 12.6576 16.3151C12.6582 15.697 12.9041 15.1044 13.3412 14.6673C13.7783 14.2302 14.3709 13.9844 14.989 13.9837ZM4.90361 14.0062C5.36492 14.0064 5.81579 14.1435 6.19916 14.4001C6.58253 14.6567 6.88117 15.0212 7.05727 15.4476C7.23337 15.874 7.27902 16.343 7.18845 16.7954C7.09788 17.2477 6.87515 17.663 6.54846 17.9887C6.22177 18.3144 5.80579 18.5358 5.35319 18.625C4.90058 18.7142 4.43169 18.6672 4.00585 18.4897C3.58002 18.3123 3.21638 18.0126 2.96097 17.6285C2.70555 17.2443 2.56985 16.793 2.57102 16.3317C2.57164 15.7136 2.81747 15.1209 3.25456 14.6838C3.69165 14.2468 4.28429 14.0009 4.90243 14.0003L4.90361 14.0062ZM27.6461 22.3307C27.5291 22.983 27.2701 23.6017 26.8875 24.1428C26.5049 24.6839 26.0079 25.1343 25.4319 25.4621C24.2367 26.0424 22.9425 26.3913 21.6176 26.4905C20.8696 26.5982 20.0968 26.7094 19.3406 26.8964C17.3275 27.4794 15.3832 28.2781 13.5417 29.2787C9.7972 31.1379 6.55927 32.7439 3.51541 30.6314C1.28223 29.0835 1.38519 26.2195 1.64555 24.6502C1.95195 23.2221 2.46295 21.8458 3.16274 20.5637C3.27162 20.3401 3.37813 20.12 3.48228 19.9022C3.80017 20.0293 4.13376 20.1129 4.47401 20.1507C4.17281 21.2146 4.25697 22.3507 4.71166 23.3586C5.16635 24.3665 5.96235 25.1814 6.95927 25.6597L7.24922 25.8088L7.55574 25.7C9.26546 25.0828 10.8274 24.1154 12.1416 22.8597C13.0097 22.0431 13.7723 21.1211 14.4115 20.1152C15.2294 20.2396 16.0656 20.0962 16.7954 19.7065C17.5251 19.3167 18.1093 18.7014 18.4607 17.9524C18.8121 17.2034 18.9119 16.3609 18.7452 15.5505C18.5785 14.7402 18.1543 14.0054 17.5358 13.4559L19.9477 8.57888L22.3845 13.5494C21.6911 14.2176 21.2746 15.1221 21.2176 16.0833C21.1606 17.0445 21.4673 17.9919 22.0768 18.7374C22.6862 19.4828 23.5538 19.9717 24.5072 20.1068C25.4605 20.2419 26.4298 20.0134 27.2224 19.4667C27.6619 20.3537 27.809 21.3572 27.6426 22.333L27.6461 22.3307Z" fill="white"/>
</svg>
