<svg width="30" height="30" viewBox="0 0 30 30" fill="none" xmlns="http://www.w3.org/2000/svg">
<path d="M0 0H30V30H0V0Z" fill="#F5DE19"/>
<path d="M20.1525 23.4375C20.4081 23.9567 20.8052 24.3932 21.2981 24.6965C21.791 24.9998 22.3595 25.1576 22.9382 25.1518C24.1061 25.1518 24.8528 24.5679 24.8528 23.759C24.8528 22.7947 24.0857 22.4497 22.8 21.8872L22.095 21.585C20.0593 20.7182 18.7093 19.6329 18.7093 17.3379C18.7093 15.224 20.3164 13.6136 22.8375 13.6136C23.6536 13.5547 24.469 13.7373 25.182 14.1388C25.895 14.5402 26.474 15.1427 26.8468 15.8711L24.6428 17.28C24.4993 16.9189 24.2493 16.6099 23.9262 16.394C23.603 16.1782 23.2218 16.0657 22.8332 16.0715C22.6637 16.0545 22.4924 16.073 22.3305 16.1259C22.1685 16.1787 22.0193 16.2647 21.8924 16.3784C21.7655 16.4921 21.6636 16.631 21.5934 16.7863C21.5231 16.9415 21.486 17.1097 21.4843 17.28C21.4843 18.1254 22.0082 18.4683 23.2178 18.9943L23.9228 19.2965C26.3186 20.324 27.6728 21.3707 27.6728 23.7247C27.6728 26.2629 25.6789 27.6536 23.0014 27.6536C21.9582 27.7201 20.918 27.4832 20.0064 26.9716C19.0947 26.46 18.3507 25.6955 17.8639 24.7704L20.1525 23.4375ZM10.1936 23.6818C10.6361 24.4672 11.0389 25.1315 12.0075 25.1315C12.9332 25.1315 13.5182 24.7693 13.5182 23.3604V13.7743H16.3371V23.3979C16.3371 26.3165 14.6228 27.645 12.1275 27.645C11.2454 27.6932 10.3694 27.4734 9.61465 27.0145C8.85986 26.5555 8.26162 25.8789 7.89856 25.0736L10.1936 23.6818Z" fill="black"/>
</svg>
