<svg width="30" height="30" viewBox="0 0 30 30" fill="none" xmlns="http://www.w3.org/2000/svg">
<path d="M29.8584 12.8126C29.447 10.0389 28.2691 7.43527 26.4575 5.29502C24.6459 3.15477 22.2726 1.56295 19.6051 0.698926C18.5892 0.376327 17.5432 0.157448 16.4832 0.0456397C16.2015 0.0167237 14.2642 -0.0154052 14.02 0.00815595C13.9557 0.00815595 13.7501 0.0338591 13.5659 0.0488526C11.4305 0.255546 9.36403 0.917016 7.5055 1.98879C5.64698 3.06057 4.03944 4.51782 2.79097 6.26257C1.39441 8.20101 0.486563 10.448 0.144629 12.8126C0.0294366 13.5334 -0.0168236 14.2635 0.00647514 14.993C-0.0180512 15.7236 0.0271335 16.4548 0.141416 17.1767C0.552168 19.9509 1.72976 22.5552 3.54141 24.6959C5.35307 26.8366 7.72674 28.4286 10.3948 29.2925C11.4249 29.6189 12.4857 29.8389 13.5606 29.949C14.5173 29.9993 15.4761 29.9993 16.4329 29.949C18.3168 29.7648 20.1494 29.229 21.8359 28.3693C22.0929 28.2376 22.1432 28.2023 22.1079 28.1734C22.0725 28.1444 20.9855 26.6815 19.6661 24.8994L17.2682 21.6608L14.2695 17.2142C12.616 14.7703 11.2558 12.7719 11.2441 12.7719C11.2323 12.7719 11.2205 14.7435 11.2151 17.1564C11.2916 18.6555 11.2701 20.1581 11.1509 21.6544C11.0994 21.7712 11.0079 21.8658 10.8928 21.9211C10.7985 21.9682 10.7161 21.9768 10.2738 21.9768H9.76721L9.63227 21.8922C9.54866 21.8396 9.48062 21.7657 9.43521 21.678L9.37417 21.5462L9.37952 15.6699L9.38916 9.79031L9.47912 9.67572C9.53981 9.60434 9.61225 9.54385 9.69332 9.49687C9.81326 9.43904 9.86038 9.43261 10.3669 9.43261C10.9656 9.43261 11.0652 9.45617 11.2237 9.62646C11.2676 9.67358 12.8944 12.1229 14.8404 15.0744C16.7863 18.026 19.4455 22.056 20.7563 24.0341L23.1285 27.6304L23.2485 27.5511C24.3917 26.791 25.4279 25.8811 26.3296 24.8459C28.2187 22.684 29.444 20.023 29.8584 17.1821C29.9731 16.4584 30.0182 15.7254 29.9934 14.993C30.0177 14.2636 29.9726 13.5335 29.8584 12.8126ZM20.4757 14.7992L20.4672 20.0694L19.5376 18.645L18.6059 17.2206V13.3866C18.6059 10.9105 18.6176 9.51829 18.6348 9.45082C18.6557 9.37282 18.6922 9.29986 18.742 9.23636C18.7919 9.17285 18.8542 9.12012 18.925 9.08134C19.0449 9.01922 19.0889 9.01386 19.5494 9.01386C19.9778 9.01386 20.0591 9.01922 20.1555 9.07277C20.2256 9.10764 20.288 9.15622 20.3389 9.21564C20.3899 9.27506 20.4284 9.34411 20.4522 9.41869C20.4757 9.49794 20.4811 11.1269 20.4757 14.7992Z" fill="#D2D2D2"/>
</svg>
