<svg width="30" height="34" viewBox="0 0 30 34" fill="none" xmlns="http://www.w3.org/2000/svg">
<path d="M15 33.8296C14.5436 33.8297 14.0952 33.7097 13.7 33.4816L9.56303 31.0325C8.94564 30.687 9.24648 30.565 9.45067 30.4937C10.1073 30.2908 10.736 30.0067 11.3222 29.6479C11.3713 29.6252 11.4253 29.6154 11.4792 29.6194C11.5331 29.6235 11.5851 29.6412 11.6303 29.6709L14.8091 31.5593C14.8683 31.5906 14.9342 31.607 15.0012 31.607C15.0682 31.607 15.1341 31.5906 15.1933 31.5593L27.5896 24.4043C27.6476 24.3695 27.6956 24.3203 27.7289 24.2614C27.7621 24.2025 27.7795 24.136 27.7793 24.0684V9.75587C27.7793 9.68718 27.7617 9.61963 27.728 9.55974C27.6944 9.49985 27.6459 9.44964 27.5872 9.41394L15.1909 2.26493C15.1324 2.23201 15.0665 2.21472 14.9994 2.21472C14.9323 2.21472 14.8664 2.23201 14.8079 2.26493L2.41886 9.41636C2.35976 9.45131 2.31069 9.50093 2.2764 9.56041C2.24211 9.61989 2.22376 9.68722 2.22313 9.75587V24.0623C2.22329 24.1298 2.2414 24.196 2.27558 24.2542C2.30976 24.3124 2.35879 24.3604 2.41765 24.3934L5.81757 26.3555C7.66009 27.2762 8.78857 26.1912 8.78857 25.1014V10.9762C8.78857 10.9286 8.79794 10.8814 8.81616 10.8375C8.83437 10.7935 8.86107 10.7535 8.89473 10.7199C8.92839 10.6862 8.96835 10.6595 9.01232 10.6413C9.0563 10.6231 9.10343 10.6137 9.15103 10.6137H10.7217C10.8178 10.6137 10.91 10.6519 10.978 10.7199C11.046 10.7878 11.0842 10.88 11.0842 10.9762V25.1026C11.0842 27.5613 9.74547 28.9689 7.41362 28.9689C6.40763 28.9864 5.41742 28.7174 4.55861 28.1932L1.30005 26.3241C0.904464 26.0938 0.576227 25.7637 0.348105 25.3668C0.119982 24.9699 -4.37936e-05 24.5201 8.5926e-06 24.0623V9.75587C-0.00116722 9.29739 0.118351 8.84667 0.346554 8.44901C0.574756 8.05136 0.903603 7.72077 1.30005 7.49047L13.6975 0.332998C14.0969 0.114513 14.5448 0 15 0C15.4552 0 15.9031 0.114513 16.3025 0.332998L28.6987 7.49047C29.0943 7.72038 29.4226 8.05001 29.6509 8.44647C29.8793 8.84292 29.9996 9.29232 30 9.74983V24.0623C29.9993 24.5201 29.8789 24.9697 29.6506 25.3665C29.4223 25.7633 29.0941 26.0935 28.6987 26.3241L16.3025 33.4816C15.9065 33.7101 15.4572 33.8301 15 33.8296Z" fill="#83CD29"/>
<path d="M12.6488 19.2742C12.6488 19.1781 12.687 19.0859 12.755 19.0179C12.8229 18.9499 12.9151 18.9117 13.0113 18.9117H14.6146C14.7002 18.912 14.783 18.9426 14.8483 18.9981C14.9135 19.0537 14.957 19.1305 14.971 19.215C15.2126 20.8473 15.9376 21.6701 19.2155 21.6701C21.8264 21.6701 22.9392 21.0793 22.9392 19.6935C22.9392 18.8948 22.6238 18.3016 18.5654 17.9041C15.1728 17.5682 13.0753 16.8167 13.0753 14.1055C13.0753 11.6045 15.1836 10.1123 18.7177 10.1123C22.6891 10.1123 24.6548 11.4909 24.9037 14.4486C24.9075 14.498 24.9012 14.5476 24.8851 14.5944C24.8689 14.6413 24.8434 14.6843 24.81 14.7209C24.7766 14.7574 24.736 14.7868 24.6909 14.8071C24.6457 14.8273 24.5968 14.8382 24.5473 14.8388H22.9331C22.8522 14.8377 22.7739 14.8095 22.7108 14.7587C22.6478 14.7079 22.6035 14.6374 22.5852 14.5585C22.1997 12.8417 21.2561 12.2931 18.7189 12.2931C15.8675 12.2931 15.5364 13.2863 15.5364 14.0305C15.5364 14.9319 15.9279 15.1953 19.7773 15.7039C23.5868 16.2078 25.3967 16.9206 25.3967 19.598C25.3967 22.2996 23.1446 23.8461 19.2167 23.8461C13.7857 23.8533 12.6488 21.3632 12.6488 19.2742Z" fill="#83CD29"/>
</svg>
