<svg width="30" height="27" viewBox="0 0 30 27" fill="none" xmlns="http://www.w3.org/2000/svg">
<path d="M15 15.9991C16.4793 15.9991 17.6786 14.7999 17.6786 13.3205C17.6786 11.8412 16.4793 10.642 15 10.642C13.5206 10.642 12.3214 11.8412 12.3214 13.3205C12.3214 14.7999 13.5206 15.9991 15 15.9991Z" fill="#00D8FF"/>
<path d="M15 19.4619C11.7805 19.5398 8.56907 19.1058 5.48571 18.1762C4.06138 17.7247 2.73293 17.0134 1.5675 16.0783C1.12278 15.7589 0.752434 15.347 0.481867 14.871C0.211299 14.3949 0.0469175 13.866 0 13.3205C0 11.5494 1.94571 9.81368 5.205 8.67797C8.37079 7.67163 11.6785 7.18391 15 7.23368C18.2772 7.1879 21.5406 7.66681 24.6664 8.65225C26.0382 9.08957 27.3216 9.76646 28.4571 10.6515C28.8943 10.9561 29.2591 11.353 29.5257 11.8143C29.7923 12.2755 29.9542 12.7897 30 13.3205C30 15.1612 27.825 17.0265 24.3214 18.1858C21.2978 19.0852 18.1541 19.5155 15 19.4619ZM15 8.51511C11.8223 8.47264 8.65803 8.9363 5.62607 9.88868C2.62607 10.9355 1.28143 12.3669 1.28143 13.3173C1.28143 14.3115 2.72679 15.8748 5.90036 16.9601C8.85008 17.845 11.9214 18.2568 15 18.1805C18.0176 18.2344 21.0256 17.8261 23.9196 16.9698C27.2143 15.878 28.7143 14.3126 28.7143 13.3205C28.6602 12.98 28.5361 12.6544 28.3499 12.3643C28.1636 12.0743 27.9192 11.826 27.6321 11.6351C26.6162 10.8499 25.4697 10.25 24.2454 9.86297C21.255 8.92414 18.1339 8.46912 15 8.51511Z" fill="#00D8FF"/>
<path d="M8.9143 26.6801C8.41448 26.6916 7.92056 26.5704 7.48288 26.3287C5.94859 25.4437 5.41716 22.8916 6.06109 19.5005C6.77107 16.2552 8.00124 13.1462 9.70395 10.2937C11.3012 7.43204 13.3459 4.84434 15.7607 2.62872C16.8248 1.65876 18.0524 0.885013 19.3864 0.34336C19.869 0.117223 20.3953 0 20.9282 0C21.4611 0 21.9875 0.117223 22.47 0.34336C24.0654 1.26265 24.5936 4.07836 23.8489 7.69229C23.117 10.7615 21.9188 13.7003 20.2961 16.4062C18.7551 19.2341 16.7747 21.7993 14.4289 24.0059C13.3262 25.0138 12.0464 25.809 10.6543 26.3512C10.097 26.5581 9.50869 26.6693 8.9143 26.6801ZM10.8139 10.9301C9.18977 13.6616 8.01073 16.6341 7.32109 19.7362C6.72859 22.8594 7.29752 24.7376 8.12466 25.2155C8.9818 25.7116 11.0625 25.2412 13.5889 23.0341C15.8283 20.9201 17.7185 18.4646 19.1893 15.7591C20.7439 13.1721 21.8933 10.3624 22.5975 7.42765C23.2982 4.02586 22.6929 1.943 21.8336 1.448C21.5115 1.3246 21.1674 1.26936 20.8229 1.28578C20.4784 1.30219 20.141 1.3899 19.8322 1.54336C18.6447 2.03337 17.5529 2.72903 16.6072 3.59836C14.3 5.72063 12.3468 8.19793 10.8214 10.9366L10.8139 10.9301Z" fill="#00D8FF"/>
<path d="M21.0824 26.694C19.6306 26.694 17.7867 25.8155 15.8667 24.1644C13.4096 21.9286 11.3302 19.3102 9.70919 16.4105C8.02784 13.5973 6.80741 10.5332 6.09419 7.3344C5.78488 5.92707 5.72757 4.47604 5.92491 3.04869C5.97053 2.5192 6.13176 2.00616 6.39723 1.54576C6.6627 1.08535 7.02594 0.688794 7.46134 0.384045C9.05455 -0.538455 11.7578 0.40976 14.5167 2.85905C16.8102 5.02567 18.7578 7.53123 20.2917 10.2883C21.972 13.0358 23.2052 16.0328 23.9453 19.1673C24.2679 20.6262 24.3177 22.1323 24.0921 23.6094C24.0384 24.1541 23.8675 24.6808 23.5912 25.1533C23.3149 25.6258 22.9397 26.033 22.4913 26.3469C22.0608 26.5855 21.5745 26.7053 21.0824 26.694ZM10.8181 15.7655C12.3732 18.5367 14.3595 21.0426 16.7024 23.1894C19.1121 25.2626 21.0235 25.7083 21.8453 25.2251C22.7024 24.7269 23.3346 22.6933 22.6831 19.403C21.9694 16.4104 20.7866 13.5497 19.1785 10.9269C17.7147 8.28811 15.8557 5.8889 13.666 3.81262C11.0688 1.5069 8.96241 0.991546 8.10419 1.48869C7.83671 1.70606 7.6172 1.97653 7.45952 2.28303C7.30185 2.58953 7.20944 2.92539 7.18812 3.2694C7.01777 4.54235 7.07326 5.83537 7.35205 7.08905C8.03809 10.1481 9.20856 13.0779 10.8192 15.7676L10.8181 15.7655Z" fill="#00D8FF"/>
</svg>
