<svg width="30" height="30" viewBox="0 0 30 30" fill="none" xmlns="http://www.w3.org/2000/svg">
<path d="M28.5943 0H1.40571C0.62936 0 0 0.62936 0 1.40571V28.5943C0 29.3706 0.62936 30 1.40571 30H28.5943C29.3706 30 30 29.3706 30 28.5943V1.40571C30 0.62936 29.3706 0 28.5943 0Z" fill="#3178C6"/>
<path fill-rule="evenodd" clip-rule="evenodd" d="M17.4053 23.3132V26.6003C18.0026 26.8951 18.6391 27.1026 19.2953 27.2164C20.0537 27.3564 20.8234 27.4253 21.5946 27.4221C22.3462 27.4257 23.0961 27.3499 23.8317 27.1961C24.4923 27.0626 25.1225 26.8083 25.6907 26.4461C26.2182 26.1056 26.6529 25.6395 26.956 25.0896C27.4988 23.9511 27.5704 22.6443 27.1553 21.4532C26.9801 21.0078 26.7191 20.6012 26.3871 20.2564C26.0307 19.8898 25.6259 19.5737 25.1839 19.3168C24.675 19.0187 24.1463 18.756 23.6014 18.5303C23.1728 18.3525 22.7871 18.1796 22.4442 18.0118C22.1397 17.866 21.8483 17.6943 21.5732 17.4986C21.3577 17.3475 21.1705 17.1596 21.0203 16.9436C20.8905 16.7474 20.8229 16.5166 20.8264 16.2814C20.8235 16.065 20.8838 15.8523 21 15.6696C21.1261 15.4784 21.2943 15.3186 21.4917 15.2025C21.7331 15.0604 21.9957 14.958 22.2696 14.8993C22.6058 14.8246 22.9495 14.7886 23.2939 14.7921C23.5835 14.7931 23.8728 14.8139 24.1596 14.8543C24.4693 14.8962 24.7758 14.9595 25.0767 15.0439C25.3828 15.1288 25.6822 15.2362 25.9725 15.3653C26.2541 15.4909 26.5234 15.6422 26.7771 15.8175V12.75C26.249 12.5502 25.7013 12.4065 25.1432 12.3214C24.4691 12.2233 23.7886 12.1771 23.1075 12.1832C22.3629 12.1792 21.6206 12.2637 20.896 12.435C20.2411 12.5846 19.6184 12.8507 19.0575 13.2203C18.5364 13.5675 18.1062 14.0344 17.8028 14.5821C17.4813 15.1904 17.3223 15.8712 17.341 16.5589C17.3173 17.4683 17.6168 18.3567 18.1864 19.0661C18.8852 19.8526 19.7663 20.4556 20.7525 20.8221C21.2025 21.0078 21.6221 21.1896 22.0114 21.3675C22.3626 21.5238 22.7002 21.7091 23.0207 21.9214C23.2791 22.0896 23.5061 22.3017 23.6914 22.5482C23.8543 22.7718 23.9407 23.042 23.9378 23.3186C23.9393 23.5258 23.8861 23.7298 23.7835 23.91C23.6696 24.1036 23.5095 24.2659 23.3175 24.3825C23.0772 24.529 22.8144 24.6347 22.5396 24.6953C22.1817 24.7754 21.8156 24.8131 21.4489 24.8078C20.7292 24.8065 20.0153 24.6796 19.3392 24.4329C18.633 24.178 17.978 23.7988 17.4053 23.3132ZM11.8832 15.1296H16.1689V12.4221H4.21924V15.1296H8.48567V27.1875H11.8832V15.1296Z" fill="white"/>
</svg>
